<mxfile host="65bd71144e">
    <diagram id="i9rjFB1QKqu30Op5k9R0" name="Page-1">
        <mxGraphModel dx="870" dy="826" grid="1" gridSize="10" guides="1" tooltips="1" connect="1" arrows="1" fold="1" page="1" pageScale="1" pageWidth="850" pageHeight="1100" math="0" shadow="0">
            <root>
                <mxCell id="0"/>
                <mxCell id="1" parent="0"/>
                <mxCell id="2" value="" style="aspect=fixed;html=1;points=[];align=center;image;fontSize=12;image=img/lib/azure2/general/Dev_Console.svg;" parent="1" vertex="1">
                    <mxGeometry x="80" y="350" width="65" height="52" as="geometry"/>
                </mxCell>
                <mxCell id="3" value="" style="aspect=fixed;html=1;points=[];align=center;image;fontSize=12;image=img/lib/azure2/containers/App_Services.svg;" parent="1" vertex="1">
                    <mxGeometry x="640" y="90" width="64" height="64" as="geometry"/>
                </mxCell>
                <mxCell id="4" value="Github" style="text;html=1;strokeColor=none;fillColor=none;align=center;verticalAlign=middle;whiteSpace=wrap;rounded=0;" parent="1" vertex="1">
                    <mxGeometry x="640" y="50" width="60" height="30" as="geometry"/>
                </mxCell>
                <mxCell id="5" value="Dev Workstation" style="text;html=1;strokeColor=none;fillColor=none;align=center;verticalAlign=middle;whiteSpace=wrap;rounded=0;" parent="1" vertex="1">
                    <mxGeometry x="80" y="310" width="60" height="30" as="geometry"/>
                </mxCell>
                <mxCell id="6" value="" style="aspect=fixed;html=1;points=[];align=center;image;fontSize=12;image=img/lib/azure2/other/Fiji.svg;" parent="1" vertex="1">
                    <mxGeometry x="750" y="980" width="54" height="68" as="geometry"/>
                </mxCell>
                <mxCell id="7" value="DataCenter&lt;br&gt;Bare Metal" style="text;html=1;strokeColor=none;fillColor=none;align=center;verticalAlign=middle;whiteSpace=wrap;rounded=0;" parent="1" vertex="1">
                    <mxGeometry x="750" y="1060" width="60" height="30" as="geometry"/>
                </mxCell>
                <mxCell id="8" value="" style="aspect=fixed;html=1;points=[];align=center;image;fontSize=12;image=img/lib/azure2/compute/VM_Scale_Sets.svg;" parent="1" vertex="1">
                    <mxGeometry x="730" y="730" width="68" height="68" as="geometry"/>
                </mxCell>
                <mxCell id="10" value="" style="aspect=fixed;html=1;points=[];align=center;image;fontSize=12;image=img/lib/azure2/compute/Virtual_Machine.svg;" parent="1" vertex="1">
                    <mxGeometry x="220" y="732" width="69" height="64" as="geometry"/>
                </mxCell>
                <mxCell id="11" value="" style="aspect=fixed;html=1;points=[];align=center;image;fontSize=12;image=img/lib/azure2/compute/Virtual_Machine.svg;" parent="1" vertex="1">
                    <mxGeometry x="340" y="734" width="69" height="64" as="geometry"/>
                </mxCell>
                <mxCell id="12" value="" style="aspect=fixed;html=1;points=[];align=center;image;fontSize=12;image=img/lib/azure2/compute/Virtual_Machine.svg;" parent="1" vertex="1">
                    <mxGeometry x="460" y="734" width="69" height="64" as="geometry"/>
                </mxCell>
                <mxCell id="13" value="test server #2" style="text;html=1;strokeColor=none;fillColor=none;align=center;verticalAlign=middle;whiteSpace=wrap;rounded=0;" parent="1" vertex="1">
                    <mxGeometry x="211.75" y="690" width="85.5" height="30" as="geometry"/>
                </mxCell>
                <mxCell id="14" value="test server #3" style="text;html=1;strokeColor=none;fillColor=none;align=center;verticalAlign=middle;whiteSpace=wrap;rounded=0;" parent="1" vertex="1">
                    <mxGeometry x="332.25" y="690" width="85.5" height="30" as="geometry"/>
                </mxCell>
                <mxCell id="15" value="test server #4" style="text;html=1;strokeColor=none;fillColor=none;align=center;verticalAlign=middle;whiteSpace=wrap;rounded=0;" parent="1" vertex="1">
                    <mxGeometry x="451.75" y="690" width="85.5" height="30" as="geometry"/>
                </mxCell>
                <mxCell id="16" value="test cluster #1" style="text;html=1;strokeColor=none;fillColor=none;align=center;verticalAlign=middle;whiteSpace=wrap;rounded=0;" parent="1" vertex="1">
                    <mxGeometry x="571.5" y="690" width="94.5" height="30" as="geometry"/>
                </mxCell>
                <mxCell id="17" value="test cluster #2" style="text;html=1;strokeColor=none;fillColor=none;align=center;verticalAlign=middle;whiteSpace=wrap;rounded=0;" parent="1" vertex="1">
                    <mxGeometry x="720.5" y="690" width="87" height="30" as="geometry"/>
                </mxCell>
                <mxCell id="18" value="" style="aspect=fixed;html=1;points=[];align=center;image;fontSize=12;image=img/lib/azure2/compute/Virtual_Machine.svg;" parent="1" vertex="1">
                    <mxGeometry x="110" y="732" width="69" height="64" as="geometry"/>
                </mxCell>
                <mxCell id="19" value="test server #1" style="text;html=1;strokeColor=none;fillColor=none;align=center;verticalAlign=middle;whiteSpace=wrap;rounded=0;" parent="1" vertex="1">
                    <mxGeometry x="101.75" y="690" width="85.5" height="30" as="geometry"/>
                </mxCell>
                <mxCell id="20" value="" style="aspect=fixed;html=1;points=[];align=center;image;fontSize=12;image=img/lib/azure2/compute/VM_Scale_Sets.svg;" parent="1" vertex="1">
                    <mxGeometry x="571.5" y="730" width="68" height="68" as="geometry"/>
                </mxCell>
                <mxCell id="21" value="Servers" style="text;html=1;strokeColor=none;fillColor=none;align=center;verticalAlign=middle;whiteSpace=wrap;rounded=0;" parent="1" vertex="1">
                    <mxGeometry x="403" y="890" width="95" height="30" as="geometry"/>
                </mxCell>
                <mxCell id="22" value="" style="shape=curlyBracket;whiteSpace=wrap;html=1;rounded=1;flipH=1;labelPosition=right;verticalLabelPosition=middle;align=left;verticalAlign=middle;direction=north;" parent="1" vertex="1">
                    <mxGeometry x="100" y="860" width="700" height="20" as="geometry"/>
                </mxCell>
                <mxCell id="23" value="server management script repo" style="text;html=1;strokeColor=none;fillColor=none;align=center;verticalAlign=middle;whiteSpace=wrap;rounded=0;" parent="1" vertex="1">
                    <mxGeometry x="730" y="340" width="60" height="30" as="geometry"/>
                </mxCell>
                <mxCell id="24" value="" style="aspect=fixed;html=1;points=[];align=center;image;fontSize=12;image=img/lib/azure2/general/Code.svg;" parent="1" vertex="1">
                    <mxGeometry x="640" y="330" width="64" height="52" as="geometry"/>
                </mxCell>
                <mxCell id="26" value="hosted on github" style="text;html=1;strokeColor=none;fillColor=none;align=center;verticalAlign=middle;whiteSpace=wrap;rounded=0;" parent="1" vertex="1">
                    <mxGeometry x="690" y="220" width="60" height="30" as="geometry"/>
                </mxCell>
                <mxCell id="28" value="dev pulls down code changes" style="text;html=1;strokeColor=none;fillColor=none;align=center;verticalAlign=middle;whiteSpace=wrap;rounded=0;" parent="1" vertex="1">
                    <mxGeometry x="370" y="240" width="100" height="30" as="geometry"/>
                </mxCell>
                <mxCell id="29" value="" style="endArrow=classic;html=1;" parent="1" edge="1">
                    <mxGeometry width="50" height="50" relative="1" as="geometry">
                        <mxPoint x="630" y="340" as="sourcePoint"/>
                        <mxPoint x="150" y="350" as="targetPoint"/>
                        <Array as="points">
                            <mxPoint x="400" y="290"/>
                        </Array>
                    </mxGeometry>
                </mxCell>
                <mxCell id="30" value="" style="endArrow=classic;html=1;exitX=1.046;exitY=0.558;exitDx=0;exitDy=0;exitPerimeter=0;" parent="1" source="2" target="24" edge="1">
                    <mxGeometry width="50" height="50" relative="1" as="geometry">
                        <mxPoint x="340" y="400" as="sourcePoint"/>
                        <mxPoint x="390" y="350" as="targetPoint"/>
                        <Array as="points">
                            <mxPoint x="430" y="420"/>
                        </Array>
                    </mxGeometry>
                </mxCell>
                <mxCell id="31" value="dev pushes up changes" style="text;html=1;strokeColor=none;fillColor=none;align=center;verticalAlign=middle;whiteSpace=wrap;rounded=0;" parent="1" vertex="1">
                    <mxGeometry x="400" y="430" width="60" height="30" as="geometry"/>
                </mxCell>
                <mxCell id="32" value="basically cloud save/sync with rollbock options" style="text;html=1;strokeColor=none;fillColor=none;align=center;verticalAlign=middle;whiteSpace=wrap;rounded=0;" parent="1" vertex="1">
                    <mxGeometry x="324.5" y="350" width="165.5" height="30" as="geometry"/>
                </mxCell>
                <mxCell id="34" value="" style="endArrow=classic;html=1;entryX=0.5;entryY=0;entryDx=0;entryDy=0;" parent="1" target="19" edge="1">
                    <mxGeometry width="50" height="50" relative="1" as="geometry">
                        <mxPoint x="680" y="380" as="sourcePoint"/>
                        <mxPoint x="180" y="620" as="targetPoint"/>
                    </mxGeometry>
                </mxCell>
                <mxCell id="35" value="" style="endArrow=classic;html=1;entryX=0.5;entryY=0;entryDx=0;entryDy=0;" parent="1" target="13" edge="1">
                    <mxGeometry width="50" height="50" relative="1" as="geometry">
                        <mxPoint x="680" y="380" as="sourcePoint"/>
                        <mxPoint x="139.5" y="700" as="targetPoint"/>
                    </mxGeometry>
                </mxCell>
                <mxCell id="36" value="" style="endArrow=classic;html=1;exitX=0.547;exitY=1.019;exitDx=0;exitDy=0;exitPerimeter=0;entryX=0.5;entryY=0;entryDx=0;entryDy=0;" parent="1" source="24" target="14" edge="1">
                    <mxGeometry width="50" height="50" relative="1" as="geometry">
                        <mxPoint x="113.01000000000022" y="412" as="sourcePoint"/>
                        <mxPoint x="264.5" y="700" as="targetPoint"/>
                    </mxGeometry>
                </mxCell>
                <mxCell id="37" value="" style="endArrow=classic;html=1;exitX=0.547;exitY=1.038;exitDx=0;exitDy=0;exitPerimeter=0;entryX=0.5;entryY=0;entryDx=0;entryDy=0;" parent="1" source="24" target="15" edge="1">
                    <mxGeometry width="50" height="50" relative="1" as="geometry">
                        <mxPoint x="113.98500000000013" y="412.98800000000006" as="sourcePoint"/>
                        <mxPoint x="384.5" y="700" as="targetPoint"/>
                    </mxGeometry>
                </mxCell>
                <mxCell id="38" value="" style="endArrow=classic;html=1;exitX=0.563;exitY=0.981;exitDx=0;exitDy=0;exitPerimeter=0;entryX=0.5;entryY=0;entryDx=0;entryDy=0;" parent="1" source="24" target="16" edge="1">
                    <mxGeometry width="50" height="50" relative="1" as="geometry">
                        <mxPoint x="113.98500000000013" y="411.01199999999994" as="sourcePoint"/>
                        <mxPoint x="504.5" y="700" as="targetPoint"/>
                    </mxGeometry>
                </mxCell>
                <mxCell id="39" value="" style="endArrow=classic;html=1;exitX=0.563;exitY=1;exitDx=0;exitDy=0;exitPerimeter=0;entryX=0.5;entryY=0;entryDx=0;entryDy=0;" parent="1" source="24" target="17" edge="1">
                    <mxGeometry width="50" height="50" relative="1" as="geometry">
                        <mxPoint x="113.01000000000022" y="411.01199999999994" as="sourcePoint"/>
                        <mxPoint x="615.5" y="700" as="targetPoint"/>
                    </mxGeometry>
                </mxCell>
                <mxCell id="45" value="Pull Method" style="text;strokeColor=none;fillColor=none;html=1;fontSize=24;fontStyle=1;verticalAlign=middle;align=center;" parent="1" vertex="1">
                    <mxGeometry x="30" width="100" height="40" as="geometry"/>
                </mxCell>
                <mxCell id="46" value="" style="endArrow=classic;html=1;entryX=0.531;entryY=-0.058;entryDx=0;entryDy=0;entryPerimeter=0;exitX=0.5;exitY=1.016;exitDx=0;exitDy=0;exitPerimeter=0;" parent="1" source="3" target="24" edge="1">
                    <mxGeometry width="50" height="50" relative="1" as="geometry">
                        <mxPoint x="674" y="160" as="sourcePoint"/>
                        <mxPoint x="460" y="124" as="targetPoint"/>
                    </mxGeometry>
                </mxCell>
                <mxCell id="47" value="&lt;h1&gt;Pros&lt;/h1&gt;&lt;p&gt;- everything needed is on the server's own file system&lt;/p&gt;&lt;p&gt;- allows the dev workstation to be interchangable&lt;/p&gt;&lt;p&gt;&lt;br&gt;&lt;/p&gt;" style="text;html=1;strokeColor=none;fillColor=none;spacing=5;spacingTop=-20;whiteSpace=wrap;overflow=hidden;rounded=0;" parent="1" vertex="1">
                    <mxGeometry x="40" y="940" width="190" height="120" as="geometry"/>
                </mxCell>
                <mxCell id="48" value="&lt;h1&gt;Cons&lt;/h1&gt;&lt;p&gt;- allows each server to be somewhat unique&lt;/p&gt;&lt;p&gt;- requires service accounts to have gitlab accounts&lt;/p&gt;&lt;p&gt;-&amp;nbsp;&lt;/p&gt;" style="text;html=1;strokeColor=none;fillColor=none;spacing=5;spacingTop=-20;whiteSpace=wrap;overflow=hidden;rounded=0;" parent="1" vertex="1">
                    <mxGeometry x="280" y="940" width="190" height="120" as="geometry"/>
                </mxCell>
                <mxCell id="49" value="" style="endArrow=classic;html=1;exitX=1;exitY=0.5;exitDx=0;exitDy=0;entryX=0.5;entryY=-0.074;entryDx=0;entryDy=0;entryPerimeter=0;" parent="1" source="21" target="6" edge="1">
                    <mxGeometry width="50" height="50" relative="1" as="geometry">
                        <mxPoint x="820" y="1030" as="sourcePoint"/>
                        <mxPoint x="870" y="980" as="targetPoint"/>
                        <Array as="points">
                            <mxPoint x="777" y="905"/>
                        </Array>
                    </mxGeometry>
                </mxCell>
                <mxCell id="50" value="hosted" style="text;html=1;strokeColor=none;fillColor=none;align=center;verticalAlign=middle;whiteSpace=wrap;rounded=0;" parent="1" vertex="1">
                    <mxGeometry x="700" y="920" width="60" height="30" as="geometry"/>
                </mxCell>
            </root>
        </mxGraphModel>
    </diagram>
</mxfile>